# xmcd
#
# Track frame offsets: 
#        150
#        26321
#        50166
#        72605
#        87754
#        119035
#        150824
#        167549
#
# Disc length: 2493 seconds
#
# Revision: 3
# Processed by: cddbd v1.5.2PL0 Copyright (c) Steve Scherf et al.
# Submitted via: ExactAudioCopyFreeDBPlugin 1.0
#
DISCID=6009bb08
DTITLE=Detroit - La Cigale [CD1]
DYEAR=2014
DGENRE=Rock
TTITLE0=Ma Muse
TTITLE1=Horizon
TTITLE2=À ton étoile
TTITLE3=Le creux de ta main
TTITLE4=Lazy
TTITLE5=Le fleuve
TTITLE6=Lolita nie en bloc
TTITLE7=Ange de désolation
EXTD=
EXTT0=
EXTT1=
EXTT2=
EXTT3=
EXTT4=
EXTT5=
EXTT6=
EXTT7=
PLAYORDER=
